<svg xmlns="http://www.w3.org/2000/svg" viewBox="0 0 1100 700" font-family="Inter, Helvetica, Arial, sans-serif">

  <!-- Background -->
  <rect width="1100" height="700" fill="#f8f9fa"/>

  <!-- Title bar -->
  <rect width="1100" height="54" fill="#ffffff"/>
  <rect y="54" width="1100" height="3" fill="#52a441"/>
  <text x="24" y="35" font-size="16" font-weight="700" fill="#52a441">TrailCurrent Playbill</text>
  <text x="218" y="35" font-size="13" fill="#495057">Wiring the KY-022 (VS1838B) IR receiver to the Radxa Dragon Q6A 40-pin GPIO header</text>

  <!-- =================================================================== -->
  <!-- PANEL 1: Radxa Dragon Q6A 40-pin header                              -->
  <!-- Board orientation: viewed top-down with U.FL connectors at top of    -->
  <!-- the board, the header sits on the right edge running vertically with -->
  <!-- pin 1 at the TOP. Below the header is drawn rotated 90° CLOCKWISE    -->
  <!-- so that pin 1 lands at the BOTTOM-LEFT corner. This means:           -->
  <!--   - LEFT column of physical header → BOTTOM row of this diagram       -->
  <!--   - Odd pins (1, 3, 5, …, 39) → BOTTOM row                             -->
  <!--   - Even pins (2, 4, 6, …, 40) → TOP row                               -->
  <!-- =================================================================== -->
  <rect x="20" y="80" width="500" height="430" fill="#ffffff" stroke="#0d6efd" stroke-width="1.5" rx="6"/>
  <path d="M20,86 Q20,80 26,80 L514,80 Q520,80 520,86 L520,108 L20,108 Z" fill="#0d6efd"/>
  <text x="270" y="100" text-anchor="middle" font-size="12" fill="#ffffff" font-weight="700">Radxa Dragon Q6A — 40-pin GPIO header (board rotated 90° CW)</text>

  <!-- Orientation cues -->
  <text x="36" y="132" font-size="10" fill="#6c757d" font-style="italic">pin 2 ▲</text>
  <text x="504" y="132" font-size="10" fill="#6c757d" font-style="italic" text-anchor="end">pin 40 ▲</text>

  <!-- Header body -->
  <rect x="40" y="138" width="460" height="50" fill="#0d2b52" stroke="#091a33" stroke-width="2" rx="3"/>

  <!-- Pin geometry: 20 columns at pitch 22.5px starting x=50.
       TOP row (even pins) y=148; BOTTOM row (odd pins) y=168. -->

  <!-- Square pad indicator on pin 1 (bottom-left corner) -->
  <rect x="46" y="176" width="8" height="8" fill="#ffffff" stroke="#ffd54f" stroke-width="1"/>

  <!-- TOP row pins (even: 2, 4, 6, …, 40). All faded — none used. -->
  <g id="top-row-even">
    <rect x="50" y="148" width="14" height="12" fill="#495057" stroke="#212529" stroke-width="0.5"/>
    <rect x="72" y="148" width="14" height="12" fill="#495057" stroke="#212529" stroke-width="0.5"/>
    <rect x="95" y="148" width="14" height="12" fill="#495057" stroke="#212529" stroke-width="0.5"/>
    <rect x="118" y="148" width="14" height="12" fill="#495057" stroke="#212529" stroke-width="0.5"/>
    <rect x="140" y="148" width="14" height="12" fill="#495057" stroke="#212529" stroke-width="0.5"/>
    <rect x="163" y="148" width="14" height="12" fill="#495057" stroke="#212529" stroke-width="0.5"/>
    <rect x="186" y="148" width="14" height="12" fill="#495057" stroke="#212529" stroke-width="0.5"/>
    <rect x="208" y="148" width="14" height="12" fill="#495057" stroke="#212529" stroke-width="0.5"/>
    <rect x="231" y="148" width="14" height="12" fill="#495057" stroke="#212529" stroke-width="0.5"/>
    <rect x="254" y="148" width="14" height="12" fill="#495057" stroke="#212529" stroke-width="0.5"/>
    <rect x="276" y="148" width="14" height="12" fill="#495057" stroke="#212529" stroke-width="0.5"/>
    <rect x="299" y="148" width="14" height="12" fill="#495057" stroke="#212529" stroke-width="0.5"/>
    <rect x="322" y="148" width="14" height="12" fill="#495057" stroke="#212529" stroke-width="0.5"/>
    <rect x="344" y="148" width="14" height="12" fill="#495057" stroke="#212529" stroke-width="0.5"/>
    <rect x="367" y="148" width="14" height="12" fill="#495057" stroke="#212529" stroke-width="0.5"/>
    <rect x="390" y="148" width="14" height="12" fill="#495057" stroke="#212529" stroke-width="0.5"/>
    <rect x="412" y="148" width="14" height="12" fill="#495057" stroke="#212529" stroke-width="0.5"/>
    <rect x="435" y="148" width="14" height="12" fill="#495057" stroke="#212529" stroke-width="0.5"/>
    <rect x="458" y="148" width="14" height="12" fill="#495057" stroke="#212529" stroke-width="0.5"/>
    <rect x="480" y="148" width="14" height="12" fill="#495057" stroke="#212529" stroke-width="0.5"/>
  </g>

  <!-- BOTTOM row pins (odd: 1, 3, 5, …, 39). USED: 1 (yellow/3.3V), 5 (signal), 9 (black/GND). -->
  <g id="bottom-row-odd">
    <!-- pin 1: 3.3V — USED (yellow) -->
    <rect x="50" y="168" width="14" height="12" fill="#facc15" stroke="#854d0e" stroke-width="1.5"/>
    <rect x="72" y="168" width="14" height="12" fill="#495057" stroke="#212529" stroke-width="0.5"/>
    <rect x="95" y="168" width="14" height="12" fill="#495057" stroke="#212529" stroke-width="0.5"/>
    <rect x="118" y="168" width="14" height="12" fill="#495057" stroke="#212529" stroke-width="0.5"/>
    <!-- pin 9: GND — USED (black) -->
    <rect x="140" y="168" width="14" height="12" fill="#1a1a1a" stroke="#000" stroke-width="1.5"/>
    <rect x="163" y="168" width="14" height="12" fill="#495057" stroke="#212529" stroke-width="0.5"/>
    <rect x="186" y="168" width="14" height="12" fill="#495057" stroke="#212529" stroke-width="0.5"/>
    <!-- pin 15: GPIO_1 — USED (signal, orange/yellow-ish) -->
    <rect x="208" y="168" width="14" height="12" fill="#ffc107" stroke="#7a5a00" stroke-width="1.5"/>
    <rect x="231" y="168" width="14" height="12" fill="#495057" stroke="#212529" stroke-width="0.5"/>
    <rect x="254" y="168" width="14" height="12" fill="#495057" stroke="#212529" stroke-width="0.5"/>
    <rect x="276" y="168" width="14" height="12" fill="#495057" stroke="#212529" stroke-width="0.5"/>
    <rect x="299" y="168" width="14" height="12" fill="#495057" stroke="#212529" stroke-width="0.5"/>
    <rect x="322" y="168" width="14" height="12" fill="#495057" stroke="#212529" stroke-width="0.5"/>
    <rect x="344" y="168" width="14" height="12" fill="#495057" stroke="#212529" stroke-width="0.5"/>
    <rect x="367" y="168" width="14" height="12" fill="#495057" stroke="#212529" stroke-width="0.5"/>
    <rect x="390" y="168" width="14" height="12" fill="#495057" stroke="#212529" stroke-width="0.5"/>
    <rect x="412" y="168" width="14" height="12" fill="#495057" stroke="#212529" stroke-width="0.5"/>
    <rect x="435" y="168" width="14" height="12" fill="#495057" stroke="#212529" stroke-width="0.5"/>
    <rect x="458" y="168" width="14" height="12" fill="#495057" stroke="#212529" stroke-width="0.5"/>
    <rect x="480" y="168" width="14" height="12" fill="#495057" stroke="#212529" stroke-width="0.5"/>
  </g>

  <!-- Pin-number labels: even pins ABOVE the top row, odd pins BELOW the bottom row. -->
  <g font-size="8" text-anchor="middle" fill="#6c757d">
    <!-- Top row: even pins labeled above -->
    <text x="57" y="142">2</text>
    <text x="79" y="142">4</text>
    <text x="102" y="142">6</text>
    <text x="125" y="142">8</text>
    <text x="147" y="142">10</text>
    <text x="170" y="142">12</text>
    <text x="193" y="142">14</text>
    <text x="215" y="142">16</text>
    <text x="238" y="142">18</text>
    <text x="261" y="142">20</text>
    <text x="283" y="142">22</text>
    <text x="306" y="142">24</text>
    <text x="329" y="142">26</text>
    <text x="351" y="142">28</text>
    <text x="374" y="142">30</text>
    <text x="397" y="142">32</text>
    <text x="419" y="142">34</text>
    <text x="442" y="142">36</text>
    <text x="465" y="142">38</text>
    <text x="487" y="142">40</text>

    <!-- Bottom row: odd pins labeled below -->
    <text x="57" y="198" fill="#854d0e" font-weight="700">1</text>
    <text x="79" y="198">3</text>
    <text x="102" y="198">5</text>
    <text x="125" y="198">7</text>
    <text x="147" y="198" fill="#212529" font-weight="700">9</text>
    <text x="170" y="198">11</text>
    <text x="193" y="198">13</text>
    <text x="215" y="198" fill="#b88600" font-weight="700">15</text>
    <text x="238" y="198">17</text>
    <text x="261" y="198">19</text>
    <text x="283" y="198">21</text>
    <text x="306" y="198">23</text>
    <text x="329" y="198">25</text>
    <text x="351" y="198">27</text>
    <text x="374" y="198">29</text>
    <text x="397" y="198">31</text>
    <text x="419" y="198">33</text>
    <text x="442" y="198">35</text>
    <text x="465" y="198">37</text>
    <text x="487" y="198">39</text>
  </g>

  <!-- ===================================================== -->
  <!-- Callouts for the three pins we use (1 / 5 / 9)       -->
  <!-- All on the BOTTOM (odd) row → callouts drop DOWN     -->
  <!-- and land in three stacked label boxes below.          -->
  <!-- ===================================================== -->

  <!-- Pin 1 — 3.3V (yellow) -->
  <line x1="57" y1="180" x2="57" y2="220" stroke="#854d0e" stroke-width="1.2"/>
  <polyline points="57,220 145,220 145,228" fill="none" stroke="#854d0e" stroke-width="1.2"/>
  <rect x="80" y="228" width="170" height="32" fill="#fef9c3" stroke="#854d0e" stroke-width="1" rx="3"/>
  <text x="165" y="244" text-anchor="middle" font-size="10" font-weight="700" fill="#854d0e">Pin 1 — 3.3V</text>
  <text x="165" y="256" text-anchor="middle" font-size="9" fill="#495057">to IR module  +   (red wire)</text>

  <!-- Pin 15 — GPIO_1 (signal) -->
  <line x1="215" y1="180" x2="215" y2="280" stroke="#ffc107" stroke-width="1.4"/>
  <polyline points="215,280 295,280 295,288" fill="none" stroke="#ffc107" stroke-width="1.4"/>
  <rect x="200" y="288" width="190" height="34" fill="#fff8db" stroke="#b88600" stroke-width="1.2" rx="3"/>
  <text x="295" y="304" text-anchor="middle" font-size="10" font-weight="700" fill="#212529">Pin 15 — GPIO_1 (signal)</text>
  <text x="295" y="316" text-anchor="middle" font-size="9" fill="#664d03">to IR module  S   (yellow wire)  ·  active-low</text>

  <!-- Pin 9 — GND -->
  <line x1="147" y1="180" x2="147" y2="340" stroke="#1a1a1a" stroke-width="1.2"/>
  <polyline points="147,340 380,340 380,348" fill="none" stroke="#1a1a1a" stroke-width="1.2"/>
  <rect x="310" y="348" width="138" height="32" fill="#f1f3f5" stroke="#1a1a1a" stroke-width="1" rx="3"/>
  <text x="379" y="364" text-anchor="middle" font-size="10" font-weight="700" fill="#1a1a1a">Pin 9 — GND</text>
  <text x="379" y="376" text-anchor="middle" font-size="9" fill="#495057">to IR module  −   (black wire)</text>

  <!-- ===================================================== -->
  <!-- Cluster + verification notes                          -->
  <!-- ===================================================== -->
  <rect x="40" y="396" width="460" height="38" fill="#d1e7dd" stroke="#198754" stroke-width="1.2" rx="4"/>
  <text x="270" y="412" text-anchor="middle" font-size="10" font-weight="700" fill="#0f5132">All three pins sit in the LEFT column (odd row) on the header.</text>
  <text x="270" y="426" text-anchor="middle" font-size="9" fill="#0f5132">Viewed top-down with U.FL connectors up: pin 1 at top, pin 9 two rows below, pin 15 five rows below pin 9.</text>

  <!-- Verification + boot-hang warning -->
  <text x="270" y="450" text-anchor="middle" font-size="9" fill="#495057">Pin numbering per radxa_dragon_q6a_schematic_v1.21.pdf and docs.radxa.com</text>
  <text x="270" y="462" text-anchor="middle" font-size="9" fill="#6c757d">GPIO_1 kernel line: tlmm gpiochip4 offset 1 · header silk: "PIN_15" · primary alt-fn: plain GPIO</text>
  <text x="270" y="474" text-anchor="middle" font-size="9" fill="#7a1a25" font-weight="700">⚠ Do NOT use Pin 3 (boot hang) or Pin 5 (I2C7_SCL, unreliable for IR).</text>

  <!-- HAT-occupied region annotation -->
  <rect x="40" y="486" width="460" height="20" fill="#fff3cd" stroke="#e0a800" stroke-width="1.2" rx="4"/>
  <text x="270" y="500" text-anchor="middle" font-size="9" fill="#664d03">Waveshare RS485 CAN HAT-B uses pins 11/12/19/21–24/35–38/40 — our trio (1, 9, 15) is clear.</text>

  <!-- =================================================================== -->
  <!-- PANEL 2: Wiring table -->
  <!-- =================================================================== -->
  <rect x="540" y="80" width="540" height="240" fill="#ffffff" stroke="#52a441" stroke-width="1.5" rx="6"/>
  <path d="M540,86 Q540,80 546,80 L1074,80 Q1080,80 1080,86 L1080,108 L540,108 Z" fill="#52a441"/>
  <text x="810" y="100" text-anchor="middle" font-size="12" fill="#ffffff" font-weight="700">Cable wiring — signal by signal</text>

  <!-- Column headers -->
  <rect x="560" y="124" width="500" height="22" fill="#e9ecef" stroke="#ced4da"/>
  <text x="595" y="140" font-size="11" font-weight="700" fill="#212529" text-anchor="middle">Signal</text>
  <text x="700" y="140" font-size="11" font-weight="700" fill="#212529" text-anchor="middle">Q6A header</text>
  <text x="850" y="140" font-size="11" font-weight="700" fill="#212529" text-anchor="middle">KY-022 pin</text>
  <text x="1010" y="140" font-size="11" font-weight="700" fill="#212529" text-anchor="middle">Wire</text>

  <!-- Row: VCC -->
  <rect x="560" y="146" width="500" height="32" fill="#ffffff" stroke="#ced4da"/>
  <rect x="566" y="152" width="14" height="20" fill="#facc15" rx="2"/>
  <text x="595" y="166" text-anchor="middle" font-size="11" font-weight="700" fill="#212529">VCC</text>
  <text x="700" y="166" text-anchor="middle" font-size="11" fill="#212529">Pin 1  (3.3V)</text>
  <text x="850" y="166" text-anchor="middle" font-size="11" fill="#212529">middle  ( + )</text>
  <text x="1010" y="166" text-anchor="middle" font-size="11" fill="#212529">Red</text>

  <!-- Row: Signal -->
  <rect x="560" y="178" width="500" height="32" fill="#fdfdff" stroke="#ced4da"/>
  <rect x="566" y="184" width="14" height="20" fill="#ffc107" rx="2"/>
  <text x="595" y="198" text-anchor="middle" font-size="11" font-weight="700" fill="#212529">S (data)</text>
  <text x="700" y="198" text-anchor="middle" font-size="11" fill="#212529">Pin 15  (GPIO_1)</text>
  <text x="850" y="198" text-anchor="middle" font-size="11" fill="#212529">right  ( S )</text>
  <text x="1010" y="198" text-anchor="middle" font-size="11" fill="#212529">Yellow</text>

  <!-- Row: GND -->
  <rect x="560" y="210" width="500" height="32" fill="#ffffff" stroke="#ced4da"/>
  <rect x="566" y="216" width="14" height="20" fill="#1a1a1a" rx="2"/>
  <text x="595" y="230" text-anchor="middle" font-size="11" font-weight="700" fill="#212529">GND</text>
  <text x="700" y="230" text-anchor="middle" font-size="11" fill="#212529">Pin 9  (GND)</text>
  <text x="850" y="230" text-anchor="middle" font-size="11" fill="#212529">left  ( − )</text>
  <text x="1010" y="230" text-anchor="middle" font-size="11" fill="#212529">Black</text>

  <!-- Footnote: voltage / level info -->
  <rect x="560" y="252" width="500" height="56" fill="#e7f1ff" stroke="#0d6efd" stroke-width="1.2" rx="4"/>
  <text x="572" y="269" font-size="10" font-weight="700" fill="#0a3d99">VS1838B is open-collector with an internal pull-up.</text>
  <text x="572" y="283" font-size="9" fill="#0a3d99">Idle = HIGH (≈VCC), pulse = LOW. Wire the signal directly to GPIO_1 —</text>
  <text x="572" y="296" font-size="9" fill="#0a3d99">no level shifter or external pull-up needed (the Q6A header is already</text>
  <text x="572" y="309" font-size="9" fill="#0a3d99">level-shifted from the QCS6490's 1.8 V core to 3.3 V).</text>

  <!-- =================================================================== -->
  <!-- PANEL 3: KY-022 module (back view) -->
  <!-- =================================================================== -->
  <rect x="540" y="340" width="540" height="170" fill="#ffffff" stroke="#e0a800" stroke-width="1.5" rx="6"/>
  <path d="M540,346 Q540,340 546,340 L1074,340 Q1080,340 1080,346 L1080,368 L540,368 Z" fill="#e0a800"/>
  <text x="810" y="360" text-anchor="middle" font-size="12" fill="#ffffff" font-weight="700">KY-022 (TL1838 / VS1838B) — back view, looking at the header pins</text>

  <!-- Module PCB outline -->
  <rect x="640" y="390" width="340" height="80" fill="#198754" stroke="#0f5132" stroke-width="1.5" rx="4"/>
  <!-- IR dome silhouette (peeking from the front) -->
  <ellipse cx="810" cy="392" rx="22" ry="6" fill="#1a1a1a" stroke="#000" stroke-width="1"/>
  <text x="810" y="396" text-anchor="middle" font-size="8" fill="#dee2e6" font-style="italic">(IR dome on far side)</text>

  <!-- LED + resistor silkscreen hints on PCB -->
  <circle cx="700" cy="420" r="4" fill="#ffc107" stroke="#7a5a00" stroke-width="0.8"/>
  <text x="700" y="436" text-anchor="middle" font-size="7" fill="#d1e7dd">power LED</text>
  <rect x="870" y="416" width="20" height="6" fill="#212529" stroke="#000" stroke-width="0.5"/>
  <text x="880" y="436" text-anchor="middle" font-size="7" fill="#d1e7dd">R</text>

  <!-- Three header pins on the back -->
  <g>
    <rect x="715" y="442" width="20" height="24" fill="#1a1a1a" stroke="#000" stroke-width="1.5"/>
    <rect x="800" y="442" width="20" height="24" fill="#facc15" stroke="#854d0e" stroke-width="1.5"/>
    <rect x="885" y="442" width="20" height="24" fill="#ffc107" stroke="#7a5a00" stroke-width="1.5"/>
  </g>

  <!-- Silk labels INSIDE pin contacts -->
  <g font-size="12" font-weight="700" text-anchor="middle" fill="#ffffff">
    <text x="725" y="459">−</text>
    <text x="810" y="459">+</text>
    <text x="895" y="459">S</text>
  </g>

  <!-- Function labels BELOW each pin -->
  <g font-size="10" text-anchor="middle">
    <text x="725" y="486" fill="#212529" font-weight="700">GND</text>
    <text x="810" y="486" fill="#212529" font-weight="700">3.3 V</text>
    <text x="895" y="486" fill="#212529" font-weight="700">Signal</text>
  </g>

  <!-- LEFT / RIGHT orientation cues -->
  <text x="640" y="384" font-size="10" fill="#6c757d" font-style="italic">◀ leftmost</text>
  <text x="980" y="384" font-size="10" fill="#6c757d" font-style="italic" text-anchor="end">rightmost ▶</text>

  <!-- Verification callout -->
  <text x="810" y="504" text-anchor="middle" font-size="9" fill="#6c757d">Verified head-on against the physical module — silk reads (left → right):  − ,  + ,  S.</text>

  <!-- =================================================================== -->
  <!-- BOTTOM PANEL: Linux side — overlay + keymap -->
  <!-- =================================================================== -->
  <rect x="20" y="530" width="1060" height="140" fill="#ffffff" stroke="#dee2e6" stroke-width="1.5" rx="6"/>
  <text x="550" y="554" text-anchor="middle" font-size="13" font-weight="700" fill="#212529">Linux side — gpio-ir-recv overlay + IR remote keymap</text>

  <text x="40" y="578" font-size="11" fill="#198754" font-weight="700">Device-tree overlay</text>
  <text x="40" y="594" font-size="10" fill="#495057" font-family="ui-monospace, Menlo, Consolas, monospace">image/overlays/qcs6490-radxa-dragon-q6a-playbill-ir-recv.dts</text>
  <text x="40" y="608" font-size="10" fill="#495057">  binds  gpio-ir-receiver  to  &amp;tlmm gpio1  (GPIO_ACTIVE_LOW)  +  wakeup-source</text>
  <text x="40" y="622" font-size="10" fill="#495057">  rc-map-name = "rc-playbill"</text>
  <text x="40" y="640" font-size="10" fill="#495057">Companion: 60-playbill-ir-keymap.rules runs ir-keytable -c -p nec -w at boot.</text>

  <text x="560" y="578" font-size="11" fill="#dc3545" font-weight="700">Remote keymap (captured from physical remote)</text>
  <text x="560" y="594" font-size="10" fill="#495057" font-family="ui-monospace, Menlo, Consolas, monospace">/etc/rc_keymaps/playbill.toml</text>
  <text x="560" y="608" font-size="10" fill="#495057">  protocol = "nec"   ·   11 scancodes: ▲▼◀▶ OK Back Home Menu Vol+/− Power</text>
  <text x="560" y="622" font-size="10" fill="#495057">  Power → KEY_PROG1 (XF86Launch1) → GNOME launches Playbill (does NOT poweroff)</text>
  <text x="560" y="640" font-size="10" fill="#495057">Scancodes are remote-specific — recapture with `ir-keytable -t -p nec` if remote changes.</text>

  <!-- Footer -->
  <rect y="676" width="1100" height="24" fill="#ffffff"/>
  <rect y="676" width="1100" height="1" fill="#dee2e6"/>
  <text x="24" y="693" font-size="9" fill="#52a441" font-weight="600">TrailCurrent</text>
  <text x="110" y="693" font-size="9" fill="#6c757d">Playbill — IR receiver wiring reference</text>
</svg>
